# MagicaVoxel @ Ephtracy

# group
o 

# material
mtllib lamp.mtl
usemtl palette

# normals
vn -1 0 0
vn 1 0 0
vn 0 0 1
vn 0 0 -1
vn 0 -1 0
vn 0 1 0

# texcoords
vt 0.0175781 0.5
vt 0.673828 0.5

# verts
v 0 0.2 0
v 0 0.2 -0.9
v 0 0.4 0
v 0 0.4 -0.9
v 0.1 0.4 -0.1
v 0.1 0.4 -0.8
v 0.1 0.6 -0.1
v 0.1 0.6 -0.8
v 0.2 0.6 -0.2
v 0.2 0.6 -0.7
v 0.2 0.7 -0.2
v 0.2 0.7 -0.7
v 0.3 0 -0.4
v 0.3 0 -0.5
v 0.3 0.1 -0.3
v 0.3 0.1 -0.4
v 0.3 0.1 -0.5
v 0.3 0.1 -0.6
v 0.3 0.5 -0.3
v 0.3 0.5 -0.4
v 0.3 0.5 -0.5
v 0.3 0.5 -0.6
v 0.3 0.6 -0.4
v 0.3 0.6 -0.5
v 0.4 0 -0.3
v 0.4 0 -0.4
v 0.4 0 -0.5
v 0.4 0 -0.6
v 0.4 0.1 -0.3
v 0.4 0.1 -0.4
v 0.4 0.1 -0.5
v 0.4 0.1 -0.6
v 0.4 0.5 -0.3
v 0.4 0.5 -0.4
v 0.4 0.5 -0.5
v 0.4 0.5 -0.6
v 0.4 0.6 -0.3
v 0.4 0.6 -0.4
v 0.4 0.6 -0.5
v 0.4 0.6 -0.6
v 0.4 0.7 -0.4
v 0.4 0.7 -0.5
v 0.4 1.3 -0.4
v 0.4 1.3 -0.5
v 0.7 0.4 -0.2
v 0.7 0.4 -0.7
v 0.7 0.6 -0.2
v 0.7 0.6 -0.7
v 0.8 0.2 -0.1
v 0.8 0.2 -0.8
v 0.8 0.4 -0.1
v 0.8 0.4 -0.8
v 0.1 0.2 -0.1
v 0.1 0.2 -0.8
v 0.1 0.4 -0.1
v 0.1 0.4 -0.8
v 0.2 0.4 -0.2
v 0.2 0.4 -0.7
v 0.2 0.6 -0.2
v 0.2 0.6 -0.7
v 0.5 0 -0.3
v 0.5 0 -0.4
v 0.5 0 -0.5
v 0.5 0 -0.6
v 0.5 0.1 -0.3
v 0.5 0.1 -0.4
v 0.5 0.1 -0.5
v 0.5 0.1 -0.6
v 0.5 0.5 -0.3
v 0.5 0.5 -0.4
v 0.5 0.5 -0.5
v 0.5 0.5 -0.6
v 0.5 0.6 -0.3
v 0.5 0.6 -0.4
v 0.5 0.6 -0.5
v 0.5 0.6 -0.6
v 0.5 0.7 -0.4
v 0.5 0.7 -0.5
v 0.5 1.3 -0.4
v 0.5 1.3 -0.5
v 0.6 0 -0.4
v 0.6 0 -0.5
v 0.6 0.1 -0.3
v 0.6 0.1 -0.4
v 0.6 0.1 -0.5
v 0.6 0.1 -0.6
v 0.6 0.5 -0.3
v 0.6 0.5 -0.4
v 0.6 0.5 -0.5
v 0.6 0.5 -0.6
v 0.6 0.6 -0.4
v 0.6 0.6 -0.5
v 0.7 0.6 -0.2
v 0.7 0.6 -0.7
v 0.7 0.7 -0.2
v 0.7 0.7 -0.7
v 0.8 0.4 -0.1
v 0.8 0.4 -0.8
v 0.8 0.6 -0.1
v 0.8 0.6 -0.8
v 0.9 0.2 0
v 0.9 0.2 -0.9
v 0.9 0.4 0
v 0.9 0.4 -0.9
v 0 0.2 0
v 0 0.4 0
v 0.9 0.2 0
v 0.9 0.4 0
v 0.1 0.4 -0.1
v 0.1 0.6 -0.1
v 0.8 0.4 -0.1
v 0.8 0.6 -0.1
v 0.2 0.6 -0.2
v 0.2 0.7 -0.2
v 0.7 0.6 -0.2
v 0.7 0.7 -0.2
v 0.3 0.1 -0.3
v 0.3 0.5 -0.3
v 0.4 0 -0.3
v 0.4 0.1 -0.3
v 0.4 0.5 -0.3
v 0.4 0.6 -0.3
v 0.5 0 -0.3
v 0.5 0.1 -0.3
v 0.5 0.5 -0.3
v 0.5 0.6 -0.3
v 0.6 0.1 -0.3
v 0.6 0.5 -0.3
v 0.3 0 -0.4
v 0.3 0.1 -0.4
v 0.3 0.5 -0.4
v 0.3 0.6 -0.4
v 0.4 0 -0.4
v 0.4 0.1 -0.4
v 0.4 0.5 -0.4
v 0.4 0.6 -0.4
v 0.4 0.7 -0.4
v 0.4 1.3 -0.4
v 0.5 0 -0.4
v 0.5 0.1 -0.4
v 0.5 0.5 -0.4
v 0.5 0.6 -0.4
v 0.5 0.7 -0.4
v 0.5 1.3 -0.4
v 0.6 0 -0.4
v 0.6 0.1 -0.4
v 0.6 0.5 -0.4
v 0.6 0.6 -0.4
v 0.2 0.4 -0.7
v 0.2 0.6 -0.7
v 0.7 0.4 -0.7
v 0.7 0.6 -0.7
v 0.1 0.2 -0.8
v 0.1 0.4 -0.8
v 0.8 0.2 -0.8
v 0.8 0.4 -0.8
v 0.1 0.2 -0.1
v 0.1 0.4 -0.1
v 0.8 0.2 -0.1
v 0.8 0.4 -0.1
v 0.2 0.4 -0.2
v 0.2 0.6 -0.2
v 0.7 0.4 -0.2
v 0.7 0.6 -0.2
v 0.3 0 -0.5
v 0.3 0.1 -0.5
v 0.3 0.5 -0.5
v 0.3 0.6 -0.5
v 0.4 0 -0.5
v 0.4 0.1 -0.5
v 0.4 0.5 -0.5
v 0.4 0.6 -0.5
v 0.4 0.7 -0.5
v 0.4 1.3 -0.5
v 0.5 0 -0.5
v 0.5 0.1 -0.5
v 0.5 0.5 -0.5
v 0.5 0.6 -0.5
v 0.5 0.7 -0.5
v 0.5 1.3 -0.5
v 0.6 0 -0.5
v 0.6 0.1 -0.5
v 0.6 0.5 -0.5
v 0.6 0.6 -0.5
v 0.3 0.1 -0.6
v 0.3 0.5 -0.6
v 0.4 0 -0.6
v 0.4 0.1 -0.6
v 0.4 0.5 -0.6
v 0.4 0.6 -0.6
v 0.5 0 -0.6
v 0.5 0.1 -0.6
v 0.5 0.5 -0.6
v 0.5 0.6 -0.6
v 0.6 0.1 -0.6
v 0.6 0.5 -0.6
v 0.2 0.6 -0.7
v 0.2 0.7 -0.7
v 0.7 0.6 -0.7
v 0.7 0.7 -0.7
v 0.1 0.4 -0.8
v 0.1 0.6 -0.8
v 0.8 0.4 -0.8
v 0.8 0.6 -0.8
v 0 0.2 -0.9
v 0 0.4 -0.9
v 0.9 0.2 -0.9
v 0.9 0.4 -0.9
v 0.4 0 -0.3
v 0.5 0 -0.3
v 0.3 0 -0.4
v 0.4 0 -0.4
v 0.5 0 -0.4
v 0.6 0 -0.4
v 0.3 0 -0.5
v 0.4 0 -0.5
v 0.5 0 -0.5
v 0.6 0 -0.5
v 0.4 0 -0.6
v 0.5 0 -0.6
v 0.3 0.1 -0.3
v 0.4 0.1 -0.3
v 0.5 0.1 -0.3
v 0.6 0.1 -0.3
v 0.3 0.1 -0.4
v 0.4 0.1 -0.4
v 0.5 0.1 -0.4
v 0.6 0.1 -0.4
v 0.3 0.1 -0.5
v 0.4 0.1 -0.5
v 0.5 0.1 -0.5
v 0.6 0.1 -0.5
v 0.3 0.1 -0.6
v 0.4 0.1 -0.6
v 0.5 0.1 -0.6
v 0.6 0.1 -0.6
v 0 0.2 0
v 0.9 0.2 0
v 0.1 0.2 -0.1
v 0.8 0.2 -0.1
v 0.1 0.2 -0.8
v 0.8 0.2 -0.8
v 0 0.2 -0.9
v 0.9 0.2 -0.9
v 0.1 0.4 -0.1
v 0.8 0.4 -0.1
v 0.2 0.4 -0.2
v 0.7 0.4 -0.2
v 0.2 0.4 -0.7
v 0.7 0.4 -0.7
v 0.1 0.4 -0.8
v 0.8 0.4 -0.8
v 0.2 0.6 -0.2
v 0.7 0.6 -0.2
v 0.4 0.6 -0.3
v 0.5 0.6 -0.3
v 0.3 0.6 -0.4
v 0.4 0.6 -0.4
v 0.5 0.6 -0.4
v 0.6 0.6 -0.4
v 0.3 0.6 -0.5
v 0.4 0.6 -0.5
v 0.5 0.6 -0.5
v 0.6 0.6 -0.5
v 0.4 0.6 -0.6
v 0.5 0.6 -0.6
v 0.2 0.6 -0.7
v 0.7 0.6 -0.7
v 0 0.4 0
v 0.9 0.4 0
v 0.1 0.4 -0.1
v 0.8 0.4 -0.1
v 0.1 0.4 -0.8
v 0.8 0.4 -0.8
v 0 0.4 -0.9
v 0.9 0.4 -0.9
v 0.3 0.5 -0.3
v 0.4 0.5 -0.3
v 0.5 0.5 -0.3
v 0.6 0.5 -0.3
v 0.3 0.5 -0.4
v 0.4 0.5 -0.4
v 0.5 0.5 -0.4
v 0.6 0.5 -0.4
v 0.3 0.5 -0.5
v 0.4 0.5 -0.5
v 0.5 0.5 -0.5
v 0.6 0.5 -0.5
v 0.3 0.5 -0.6
v 0.4 0.5 -0.6
v 0.5 0.5 -0.6
v 0.6 0.5 -0.6
v 0.1 0.6 -0.1
v 0.8 0.6 -0.1
v 0.2 0.6 -0.2
v 0.7 0.6 -0.2
v 0.2 0.6 -0.7
v 0.7 0.6 -0.7
v 0.1 0.6 -0.8
v 0.8 0.6 -0.8
v 0.2 0.7 -0.2
v 0.7 0.7 -0.2
v 0.4 0.7 -0.4
v 0.5 0.7 -0.4
v 0.4 0.7 -0.5
v 0.5 0.7 -0.5
v 0.2 0.7 -0.7
v 0.7 0.7 -0.7
v 0.4 1.3 -0.4
v 0.5 1.3 -0.4
v 0.4 1.3 -0.5
v 0.5 1.3 -0.5

# faces
f 3/2/1 2/2/1 1/2/1
f 4/2/1 2/2/1 3/2/1
f 7/2/1 6/2/1 5/2/1
f 8/2/1 6/2/1 7/2/1
f 11/2/1 10/2/1 9/2/1
f 12/2/1 10/2/1 11/2/1
f 16/1/1 14/1/1 13/1/1
f 17/1/1 14/1/1 16/1/1
f 19/1/1 16/1/1 15/1/1
f 19/1/1 18/1/1 17/1/1
f 19/1/1 17/1/1 16/1/1
f 20/1/1 18/1/1 19/1/1
f 21/1/1 18/1/1 20/1/1
f 22/1/1 18/1/1 21/1/1
f 23/1/1 21/1/1 20/1/1
f 24/1/1 21/1/1 23/1/1
f 29/1/1 26/1/1 25/1/1
f 30/1/1 26/1/1 29/1/1
f 31/1/1 28/1/1 27/1/1
f 32/1/1 28/1/1 31/1/1
f 37/1/1 34/1/1 33/1/1
f 38/1/1 34/1/1 37/1/1
f 39/1/1 36/1/1 35/1/1
f 40/1/1 36/1/1 39/1/1
f 43/2/1 42/2/1 41/2/1
f 44/2/1 42/2/1 43/2/1
f 47/2/1 46/2/1 45/2/1
f 48/2/1 46/2/1 47/2/1
f 51/2/1 50/2/1 49/2/1
f 52/2/1 50/2/1 51/2/1
f 53/2/2 54/2/2 55/2/2
f 55/2/2 54/2/2 56/2/2
f 57/2/2 58/2/2 59/2/2
f 59/2/2 58/2/2 60/2/2
f 61/1/2 62/1/2 65/1/2
f 65/1/2 62/1/2 66/1/2
f 63/1/2 64/1/2 67/1/2
f 67/1/2 64/1/2 68/1/2
f 69/1/2 70/1/2 73/1/2
f 73/1/2 70/1/2 74/1/2
f 71/1/2 72/1/2 75/1/2
f 75/1/2 72/1/2 76/1/2
f 77/2/2 78/2/2 79/2/2
f 79/2/2 78/2/2 80/2/2
f 81/1/2 82/1/2 84/1/2
f 84/1/2 82/1/2 85/1/2
f 83/1/2 84/1/2 87/1/2
f 85/1/2 86/1/2 87/1/2
f 84/1/2 85/1/2 87/1/2
f 87/1/2 86/1/2 88/1/2
f 88/1/2 86/1/2 89/1/2
f 89/1/2 86/1/2 90/1/2
f 88/1/2 89/1/2 91/1/2
f 91/1/2 89/1/2 92/1/2
f 93/2/2 94/2/2 95/2/2
f 95/2/2 94/2/2 96/2/2
f 97/2/2 98/2/2 99/2/2
f 99/2/2 98/2/2 100/2/2
f 101/2/2 102/2/2 103/2/2
f 103/2/2 102/2/2 104/2/2
f 107/2/3 106/2/3 105/2/3
f 108/2/3 106/2/3 107/2/3
f 111/2/3 110/2/3 109/2/3
f 112/2/3 110/2/3 111/2/3
f 115/2/3 114/2/3 113/2/3
f 116/2/3 114/2/3 115/2/3
f 120/1/3 118/1/3 117/1/3
f 121/1/3 118/1/3 120/1/3
f 123/1/3 120/1/3 119/1/3
f 123/1/3 122/1/3 121/1/3
f 123/1/3 121/1/3 120/1/3
f 124/1/3 122/1/3 123/1/3
f 125/1/3 122/1/3 124/1/3
f 126/1/3 122/1/3 125/1/3
f 127/1/3 125/1/3 124/1/3
f 128/1/3 125/1/3 127/1/3
f 133/1/3 130/1/3 129/1/3
f 134/1/3 130/1/3 133/1/3
f 135/1/3 132/1/3 131/1/3
f 136/1/3 132/1/3 135/1/3
f 143/2/3 138/2/3 137/2/3
f 144/2/3 138/2/3 143/2/3
f 145/1/3 140/1/3 139/1/3
f 146/1/3 140/1/3 145/1/3
f 147/1/3 142/1/3 141/1/3
f 148/1/3 142/1/3 147/1/3
f 151/2/3 150/2/3 149/2/3
f 152/2/3 150/2/3 151/2/3
f 155/2/3 154/2/3 153/2/3
f 156/2/3 154/2/3 155/2/3
f 157/2/4 158/2/4 159/2/4
f 159/2/4 158/2/4 160/2/4
f 161/2/4 162/2/4 163/2/4
f 163/2/4 162/2/4 164/2/4
f 165/1/4 166/1/4 169/1/4
f 169/1/4 166/1/4 170/1/4
f 167/1/4 168/1/4 171/1/4
f 171/1/4 168/1/4 172/1/4
f 173/2/4 174/2/4 179/2/4
f 179/2/4 174/2/4 180/2/4
f 175/1/4 176/1/4 181/1/4
f 181/1/4 176/1/4 182/1/4
f 177/1/4 178/1/4 183/1/4
f 183/1/4 178/1/4 184/1/4
f 185/1/4 186/1/4 188/1/4
f 188/1/4 186/1/4 189/1/4
f 187/1/4 188/1/4 191/1/4
f 189/1/4 190/1/4 191/1/4
f 188/1/4 189/1/4 191/1/4
f 191/1/4 190/1/4 192/1/4
f 192/1/4 190/1/4 193/1/4
f 193/1/4 190/1/4 194/1/4
f 192/1/4 193/1/4 195/1/4
f 195/1/4 193/1/4 196/1/4
f 197/2/4 198/2/4 199/2/4
f 199/2/4 198/2/4 200/2/4
f 201/2/4 202/2/4 203/2/4
f 203/2/4 202/2/4 204/2/4
f 205/2/4 206/2/4 207/2/4
f 207/2/4 206/2/4 208/2/4
f 212/1/5 210/1/5 209/1/5
f 213/1/5 210/1/5 212/1/5
f 215/1/5 212/1/5 211/1/5
f 215/1/5 214/1/5 213/1/5
f 215/1/5 213/1/5 212/1/5
f 216/1/5 214/1/5 215/1/5
f 217/1/5 214/1/5 216/1/5
f 218/1/5 214/1/5 217/1/5
f 219/1/5 217/1/5 216/1/5
f 220/1/5 217/1/5 219/1/5
f 225/1/5 222/1/5 221/1/5
f 226/1/5 222/1/5 225/1/5
f 227/1/5 224/1/5 223/1/5
f 228/1/5 224/1/5 227/1/5
f 233/1/5 230/1/5 229/1/5
f 234/1/5 230/1/5 233/1/5
f 235/1/5 232/1/5 231/1/5
f 236/1/5 232/1/5 235/1/5
f 239/2/5 238/2/5 237/2/5
f 240/2/5 238/2/5 239/2/5
f 241/2/5 239/2/5 237/2/5
f 242/2/5 238/2/5 240/2/5
f 243/2/5 241/2/5 237/2/5
f 243/2/5 242/2/5 241/2/5
f 244/2/5 238/2/5 242/2/5
f 244/2/5 242/2/5 243/2/5
f 247/2/5 246/2/5 245/2/5
f 248/2/5 246/2/5 247/2/5
f 249/2/5 247/2/5 245/2/5
f 250/2/5 246/2/5 248/2/5
f 251/2/5 249/2/5 245/2/5
f 251/2/5 250/2/5 249/2/5
f 252/2/5 246/2/5 250/2/5
f 252/2/5 250/2/5 251/2/5
f 255/2/5 254/2/5 253/2/5
f 256/2/5 254/2/5 255/2/5
f 257/2/5 255/2/5 253/2/5
f 258/2/5 255/2/5 257/2/5
f 259/2/5 254/2/5 256/2/5
f 260/2/5 254/2/5 259/2/5
f 261/2/5 257/2/5 253/2/5
f 264/2/5 254/2/5 260/2/5
f 265/2/5 262/2/5 261/2/5
f 266/2/5 264/2/5 263/2/5
f 267/2/5 265/2/5 261/2/5
f 267/2/5 266/2/5 265/2/5
f 267/2/5 261/2/5 253/2/5
f 268/2/5 264/2/5 266/2/5
f 268/2/5 266/2/5 267/2/5
f 268/2/5 254/2/5 264/2/5
f 269/2/6 270/2/6 271/2/6
f 271/2/6 270/2/6 272/2/6
f 269/2/6 271/2/6 273/2/6
f 272/2/6 270/2/6 274/2/6
f 269/2/6 273/2/6 275/2/6
f 273/2/6 274/2/6 275/2/6
f 274/2/6 270/2/6 276/2/6
f 275/2/6 274/2/6 276/2/6
f 277/1/6 278/1/6 281/1/6
f 281/1/6 278/1/6 282/1/6
f 279/1/6 280/1/6 283/1/6
f 283/1/6 280/1/6 284/1/6
f 285/1/6 286/1/6 289/1/6
f 289/1/6 286/1/6 290/1/6
f 287/1/6 288/1/6 291/1/6
f 291/1/6 288/1/6 292/1/6
f 293/2/6 294/2/6 295/2/6
f 295/2/6 294/2/6 296/2/6
f 293/2/6 295/2/6 297/2/6
f 296/2/6 294/2/6 298/2/6
f 293/2/6 297/2/6 299/2/6
f 297/2/6 298/2/6 299/2/6
f 298/2/6 294/2/6 300/2/6
f 299/2/6 298/2/6 300/2/6
f 301/2/6 302/2/6 303/2/6
f 303/2/6 302/2/6 304/2/6
f 301/2/6 303/2/6 305/2/6
f 304/2/6 302/2/6 306/2/6
f 301/2/6 305/2/6 307/2/6
f 305/2/6 306/2/6 307/2/6
f 306/2/6 302/2/6 308/2/6
f 307/2/6 306/2/6 308/2/6
f 309/2/6 310/2/6 311/2/6
f 311/2/6 310/2/6 312/2/6
