# MagicaVoxel @ Ephtracy

# group
o 

# material
mtllib Arm-L.mtl
usemtl palette

# normals
vn -1 0 0
vn 1 0 0
vn 0 0 1
vn 0 0 -1
vn 0 -1 0
vn 0 1 0

# texcoords
vt 0.0332031 0.5
vt 0.470703 0.5
vt 0.498047 0.5

# verts
v 0 -0.7 0.1
v 0 -0.7 -0.1
v 0 -0.6 -0.1
v 0 -0.6 -0.2
v 0 -0.5 0.1
v 0 -0.5 -0.2
v 0 -0.4 0
v 0 -0.4 -0.1
v 0 -0.3 0.1
v 0 -0.3 0
v 0 -0.3 -0.1
v 0 -0.3 -0.2
v 0 0.1 0.1
v 0 0.1 0
v 0 0.1 -0.1
v 0 0.1 -0.2
v 0 0.2 0
v 0 0.2 -0.1
v 0.1 -0.7 0.1
v 0.1 -0.7 -0.1
v 0.1 -0.6 -0.1
v 0.1 -0.6 -0.2
v 0.1 -0.5 0.1
v 0.1 -0.5 -0.2
v 0.1 -0.3 0.1
v 0.1 -0.3 0
v 0.1 -0.3 -0.1
v 0.1 -0.3 -0.2
v 0.1 -0.1 0
v 0.1 -0.1 -0.1
v 0.1 0.1 0.1
v 0.1 0.1 0
v 0.1 0.1 -0.1
v 0.1 0.1 -0.2
v 0.1 0.2 0
v 0.1 0.2 -0.1
v 0.2 -0.5 0.1
v 0.2 -0.5 -0.2
v 0.2 -0.3 0.1
v 0.2 -0.3 0
v 0.2 -0.3 -0.1
v 0.2 -0.3 -0.2
v 0.2 -0.1 0
v 0.2 -0.1 -0.1
v 0 -0.7 0.1
v 0 -0.5 0.1
v 0 -0.3 0.1
v 0 0.1 0.1
v 0.1 -0.7 0.1
v 0.1 -0.5 0.1
v 0.1 -0.3 0.1
v 0.1 0.1 0.1
v 0.2 -0.5 0.1
v 0.2 -0.3 0.1
v 0 0.1 0
v 0 0.2 0
v 0.1 -0.3 0
v 0.1 -0.1 0
v 0.1 0.1 0
v 0.1 0.2 0
v 0.2 -0.3 0
v 0.2 -0.1 0
v 0 -0.7 -0.1
v 0 -0.6 -0.1
v 0 0.1 -0.1
v 0 0.2 -0.1
v 0.1 -0.7 -0.1
v 0.1 -0.6 -0.1
v 0.1 -0.3 -0.1
v 0.1 -0.1 -0.1
v 0.1 0.1 -0.1
v 0.1 0.2 -0.1
v 0.2 -0.3 -0.1
v 0.2 -0.1 -0.1
v 0 -0.6 -0.2
v 0 -0.5 -0.2
v 0 -0.3 -0.2
v 0 0.1 -0.2
v 0.1 -0.6 -0.2
v 0.1 -0.5 -0.2
v 0.1 -0.3 -0.2
v 0.1 0.1 -0.2
v 0.2 -0.5 -0.2
v 0.2 -0.3 -0.2
v 0 -0.7 0.1
v 0.1 -0.7 0.1
v 0 -0.7 -0.1
v 0.1 -0.7 -0.1
v 0 -0.6 -0.1
v 0.1 -0.6 -0.1
v 0 -0.6 -0.2
v 0.1 -0.6 -0.2
v 0.1 -0.5 0.1
v 0.2 -0.5 0.1
v 0.1 -0.5 -0.2
v 0.2 -0.5 -0.2
v 0.1 -0.3 0.1
v 0.2 -0.3 0.1
v 0.1 -0.3 0
v 0.2 -0.3 0
v 0.1 -0.3 -0.1
v 0.2 -0.3 -0.1
v 0.1 -0.3 -0.2
v 0.2 -0.3 -0.2
v 0.1 -0.1 0
v 0.2 -0.1 0
v 0.1 -0.1 -0.1
v 0.2 -0.1 -0.1
v 0 0.1 0.1
v 0.1 0.1 0.1
v 0 0.1 0
v 0.1 0.1 0
v 0 0.1 -0.1
v 0.1 0.1 -0.1
v 0 0.1 -0.2
v 0.1 0.1 -0.2
v 0 0.2 0
v 0.1 0.2 0
v 0 0.2 -0.1
v 0.1 0.2 -0.1

# faces
f 3/1/1 2/1/1 1/1/1
f 5/1/1 3/1/1 1/1/1
f 5/1/1 4/1/1 3/1/1
f 6/1/1 4/1/1 5/1/1
f 7/3/1 6/3/1 5/3/1
f 8/3/1 6/3/1 7/3/1
f 9/3/1 7/3/1 5/3/1
f 10/2/1 8/2/1 7/2/1
f 10/3/1 7/3/1 9/3/1
f 11/3/1 6/3/1 8/3/1
f 11/2/1 8/2/1 10/2/1
f 12/3/1 6/3/1 11/3/1
f 13/2/1 10/2/1 9/2/1
f 13/2/1 11/2/1 10/2/1
f 13/2/1 12/2/1 11/2/1
f 14/2/1 12/2/1 13/2/1
f 15/2/1 12/2/1 14/2/1
f 16/2/1 12/2/1 15/2/1
f 17/2/1 15/2/1 14/2/1
f 18/2/1 15/2/1 17/2/1
f 19/1/2 20/1/2 21/1/2
f 19/1/2 21/1/2 23/1/2
f 21/1/2 22/1/2 23/1/2
f 23/1/2 22/1/2 24/1/2
f 25/2/2 26/2/2 29/2/2
f 27/2/2 28/2/2 30/2/2
f 25/2/2 29/2/2 31/2/2
f 29/2/2 30/2/2 31/2/2
f 31/2/2 30/2/2 32/2/2
f 30/2/2 28/2/2 33/2/2
f 32/2/2 30/2/2 33/2/2
f 33/2/2 28/2/2 34/2/2
f 32/2/2 33/2/2 35/2/2
f 35/2/2 33/2/2 36/2/2
f 37/3/2 38/3/2 39/3/2
f 39/3/2 38/3/2 40/3/2
f 40/3/2 38/3/2 41/3/2
f 41/3/2 38/3/2 42/3/2
f 40/2/2 41/2/2 43/2/2
f 43/2/2 41/2/2 44/2/2
f 49/1/3 46/1/3 45/1/3
f 50/3/3 47/3/3 46/3/3
f 50/1/3 46/1/3 49/1/3
f 51/2/3 48/2/3 47/2/3
f 51/3/3 47/3/3 50/3/3
f 52/2/3 48/2/3 51/2/3
f 53/3/3 51/3/3 50/3/3
f 54/3/3 51/3/3 53/3/3
f 59/2/3 56/2/3 55/2/3
f 60/2/3 56/2/3 59/2/3
f 61/2/3 58/2/3 57/2/3
f 62/2/3 58/2/3 61/2/3
f 63/1/4 64/1/4 67/1/4
f 67/1/4 64/1/4 68/1/4
f 65/2/4 66/2/4 71/2/4
f 71/2/4 66/2/4 72/2/4
f 69/2/4 70/2/4 73/2/4
f 73/2/4 70/2/4 74/2/4
f 75/1/4 76/1/4 79/1/4
f 76/3/4 77/3/4 80/3/4
f 79/1/4 76/1/4 80/1/4
f 77/2/4 78/2/4 81/2/4
f 80/3/4 77/3/4 81/3/4
f 81/2/4 78/2/4 82/2/4
f 80/3/4 81/3/4 83/3/4
f 83/3/4 81/3/4 84/3/4
f 87/1/5 86/1/5 85/1/5
f 88/1/5 86/1/5 87/1/5
f 91/1/5 90/1/5 89/1/5
f 92/1/5 90/1/5 91/1/5
f 95/3/5 94/3/5 93/3/5
f 96/3/5 94/3/5 95/3/5
f 97/3/6 98/3/6 99/3/6
f 99/3/6 98/3/6 100/3/6
f 101/3/6 102/3/6 103/3/6
f 103/3/6 102/3/6 104/3/6
f 105/2/6 106/2/6 107/2/6
f 107/2/6 106/2/6 108/2/6
f 109/2/6 110/2/6 111/2/6
f 111/2/6 110/2/6 112/2/6
f 113/2/6 114/2/6 115/2/6
f 115/2/6 114/2/6 116/2/6
f 117/2/6 118/2/6 119/2/6
f 119/2/6 118/2/6 120/2/6
